<svg width="200" height="60" viewBox="0 0 200 60" fill="none" xmlns="http://www.w3.org/2000/svg">
  <!-- Building/House Icon -->
  <path d="M30 10L10 25V50H50V25L30 10Z" fill="#FF6B00" />
  <path d="M20 30H40V50H20V30Z" fill="white" />
  <path d="M25 35H35V45H25V35Z" fill="#1A1A2E" />
  
  <!-- Text: Stone-Edge -->
  <path d="M65 25C65 22.5 66.5 20 70 20C73.5 20 75 22.5 75 25C75 27.5 73.5 30 70 30C66.5 30 65 27.5 65 25ZM67 25C67 26.5 68 28 70 28C72 28 73 26.5 73 25C73 23.5 72 22 70 22C68 22 67 23.5 67 25Z" fill="#FF6B00" />
  <path d="M77 20H79V23H79.1C79.5 21.5 80.5 20 82.5 20C85 20 86 21.5 86 24V30H84V24.5C84 22.5 83.5 22 82 22C80 22 79 23.5 79 25.5V30H77V20Z" fill="#FF6B00" />
  <path d="M88 20H90V30H88V20ZM88 15H90V18H88V15Z" fill="#FF6B00" />
  <path d="M98 28C98 29 98.5 30 100 30C101 30 101.5 29.5 101.5 29C101.5 28 100.5 27.5 99 27C97.5 26.5 96 25.5 96 23.5C96 21.5 97.5 20 100 20C102.5 20 104 21.5 104 23.5H102C102 22.5 101.5 22 100 22C99 22 98 22.5 98 23.5C98 24.5 99 25 100.5 25.5C102 26 103.5 27 103.5 29C103.5 31 102 32 100 32C97.5 32 96 30.5 96 28H98Z" fill="#FF6B00" />
  <path d="M106 20H108V30H106V20Z" fill="#FF6B00" />
  <path d="M110 25C110 22 112 20 115 20C118 20 120 22 120 25C120 28 118 30 115 30C112 30 110 28 110 25ZM112 25C112 27 113 28 115 28C117 28 118 27 118 25C118 23 117 22 115 22C113 22 112 23 112 25Z" fill="#FF6B00" />
  <path d="M122 20H124V22H124.1C124.5 20.5 126 20 127 20C130 20 131 22 131 25C131 28 130 30 127 30C126 30 124.5 29.5 124.1 28H124V35H122V20ZM124 25C124 27 125 28 127 28C129 28 129.5 26.5 129.5 25C129.5 23.5 129 22 127 22C125 22 124 23 124 25Z" fill="#FF6B00" />
  <path d="M133 20H135V22H135.1C135.5 20.5 136.5 20 138 20C140 20 141 21.5 141 23.5V30H139V24C139 22.5 138.5 22 137 22C135.5 22 135 23 135 24.5V30H133V20Z" fill="#FF6B00" />
  <path d="M143 25C143 22 145 20 148 20C151 20 153 22 153 25C153 28 151 30 148 30C145 30 143 28 143 25ZM145 25C145 27 146 28 148 28C150 28 151 27 151 25C151 23 150 22 148 22C146 22 145 23 145 25Z" fill="#FF6B00" />
  
  <!-- Text: Construction -->
  <path d="M70 40C70 37.5 71.5 35 75 35C78.5 35 80 37.5 80 40C80 42.5 78.5 45 75 45C71.5 45 70 42.5 70 40ZM72 40C72 41.5 73 43 75 43C77 43 78 41.5 78 40C78 38.5 77 37 75 37C73 37 72 38.5 72 40Z" fill="#1A1A2E" />
  <path d="M82 35H84V37H84.1C84.5 35.5 85.5 35 87 35C89 35 90 36.5 90 38.5V45H88V39C88 37.5 87.5 37 86 37C84.5 37 84 38 84 39.5V45H82V35Z" fill="#1A1A2E" />
  <path d="M97 43C97 44 97.5 45 99 45C100 45 100.5 44.5 100.5 44C100.5 43 99.5 42.5 98 42C96.5 41.5 95 40.5 95 38.5C95 36.5 96.5 35 99 35C101.5 35 103 36.5 103 38.5H101C101 37.5 100.5 37 99 37C98 37 97 37.5 97 38.5C97 39.5 98 40 99.5 40.5C101 41 102.5 42 102.5 44C102.5 46 101 47 99 47C96.5 47 95 45.5 95 43H97Z" fill="#1A1A2E" />
  <path d="M105 35H107V37H107.1C107.5 35.5 108.5 35 110 35C112 35 113 36.5 113 38.5V45H111V39C111 37.5 110.5 37 109 37C107.5 37 107 38 107 39.5V45H105V35Z" fill="#1A1A2E" />
  <path d="M120 43C120 44 120.5 45 122 45C123 45 123.5 44.5 123.5 44C123.5 43 122.5 42.5 121 42C119.5 41.5 118 40.5 118 38.5C118 36.5 119.5 35 122 35C124.5 35 126 36.5 126 38.5H124C124 37.5 123.5 37 122 37C121 37 120 37.5 120 38.5C120 39.5 121 40 122.5 40.5C124 41 125.5 42 125.5 44C125.5 46 124 47 122 47C119.5 47 118 45.5 118 43H120Z" fill="#1A1A2E" />
  <path d="M128 35H130V37H130.1C130.5 35.5 131.5 35 133 35C135 35 136 36.5 136 38.5V45H134V39C134 37.5 133.5 37 132 37C130.5 37 130 38 130 39.5V45H128V35Z" fill="#1A1A2E" />
  <path d="M138 40C138 37 140 35 143 35C146 35 148 37 148 40C148 43 146 45 143 45C140 45 138 43 138 40ZM140 40C140 42 141 43 143 43C145 43 146 42 146 40C146 38 145 37 143 37C141 37 140 38 140 40Z" fill="#1A1A2E" />
  <path d="M150 35H152V37H152.1C152.5 35.5 153.5 35 155 35C157 35 158 36.5 158 38.5V45H156V39C156 37.5 155.5 37 154 37C152.5 37 152 38 152 39.5V45H150V35Z" fill="#1A1A2E" />
</svg>